<svg id="Layer_1" data-name="Layer 1" xmlns="http://www.w3.org/2000/svg" viewBox="0 0 905.01 733.49"><defs><style>.cls-1{fill:none;stroke:#fff;stroke-miterlimit:10;}</style></defs><path class="cls-1" d="M460.46,343.93c7.66-186.41,236.45-283.57,374.4-156.12,133.58,123.25,65.75,353.9-113.74,384.28,3.31,67,28.59,125.65,66.14,161.4C590.46,721.1,455.23,532,460.46,343.9,460.73,336.79,460.46,345,460.46,343.93Z"/><path class="cls-1" d="M.14,213.93C7.8,27.52,236.59-69.64,374.55,57.81c133.55,123.25,65.77,353.9-113.71,384.28,3.31,67,28.58,125.65,66.13,161.4C130.14,591.1-5,402,.14,213.9.45,206.79.14,215,.14,213.93Z"/></svg>