<svg id="Layer_1" data-name="Layer 1" xmlns="http://www.w3.org/2000/svg" width="100" height="100" viewBox="0 0 100 100"><title>Challenge</title><path d="M91.58,22.19c-.11,0-.65-1.11-1.39-1.38s-1.83.29-1.91.26c0,.16-.25.13-.55.92a2,2,0,0,0,.36,1.82c1.14,1.91,2.37,3.78,3.37,5.76a44.83,44.83,0,0,1,4.07,12.49,48.85,48.85,0,0,1,.7,8.53c0,1.11-.37,5-.42,5.4-.13,1-.24,2-.45,3a48,48,0,0,1-3,9.36A46.17,46.17,0,0,1,83.6,81.72,44.77,44.77,0,0,1,68.33,92.41a51.73,51.73,0,0,1-7.4,2.45,68.51,68.51,0,0,1-7.45,1.25c-1.15.16-2.33.1-3.53.15.23-3.21.45-6.31.66-9.41,0-.43.3-.46.64-.49,1.44-.11,2.89-.16,4.31-.39a37,37,0,0,0,7.78-2.12,36.08,36.08,0,0,0,11.83-7.58,1.69,1.69,0,0,0,.56-1.62,1.79,1.79,0,0,0-1.27-1.46,2,2,0,0,0-2.1.64,32.62,32.62,0,0,1-22,8.88,31.27,31.27,0,0,1-6.81-.66A32.51,32.51,0,0,1,34.78,79c-.31-.16-.38-.31-.18-.62.37-.58.7-1.18,1-1.77,1.2-2,2.41-4,3.58-6,.21-.35.37-.33.69-.19,1.06.44,2.12.88,3.2,1.26a20.81,20.81,0,0,0,9.52,1,22.1,22.1,0,0,0,10.62-4.18,22.48,22.48,0,0,0,9-14.19,21.42,21.42,0,0,0-.55-10.58c-.53-1.7-1.27-3.33-1.95-5.07C72.44,36.8,75.19,35,78,33.12c.39.7.77,1.35,1.11,2a32.71,32.71,0,0,1,1,27.64,1.84,1.84,0,0,0,1,2.51,1.81,1.81,0,0,0,2.34-1,37.18,37.18,0,0,0,2.12-6.77,35.89,35.89,0,0,0,.08-14.74,35.17,35.17,0,0,0-3.2-9.15A36.05,36.05,0,0,0,70.39,19.84a35,35,0,0,0-18.12-6.16,44.08,44.08,0,0,0-6.5.18,37.27,37.27,0,0,0-5.54,1A29.31,29.31,0,0,0,36,16.4a1.75,1.75,0,0,0-.82,2.36,1.9,1.9,0,0,0,2.41,1,30.49,30.49,0,0,1,8.85-2.25,32.26,32.26,0,0,1,9.8.42,33.32,33.32,0,0,1,8.22,2.77,32,32,0,0,1,9,6.62c.84.87,1.61,1.83,2.44,2.78l-8.35,5.5c-.64-.67-1.23-1.33-1.86-1.94a1.77,1.77,0,0,0-2.7,0,1.86,1.86,0,0,0,.15,2.67A18.87,18.87,0,0,1,69,49.22a18.37,18.37,0,0,1-2.54,10.31,18.86,18.86,0,0,1-12.57,9.08c-1,.21-2,.27-3,.41.22-3,.42-5.88.62-8.73,0-.38.21-.49.57-.58a13.19,13.19,0,0,0,2.24-.78,9.91,9.91,0,0,0,5.19-11.87,10.06,10.06,0,0,0-8.58-7,1.87,1.87,0,1,0-.38,3.71,8.31,8.31,0,0,1,1.92.48,6.21,6.21,0,0,1,3.48,7.58,6,6,0,0,1-5.25,4.34A5.91,5.91,0,0,1,44.9,53.6a6.29,6.29,0,0,1-1.17-4.06,1.79,1.79,0,0,0-1.81-2A1.82,1.82,0,0,0,40,49.4a11.2,11.2,0,0,0,.26,2.9,9.66,9.66,0,0,0,6.77,7.16c.56.18.76.41.71,1-.21,2.44-.36,4.88-.54,7.31l-.07,1.07c-1.25-.33-2.46-.54-3.59-1A19.05,19.05,0,0,1,31.34,46.3a18.23,18.23,0,0,1,4.47-9A18.89,18.89,0,0,1,51.16,31a2.52,2.52,0,0,0,1.32-.3,1.78,1.78,0,0,0,.76-2,1.83,1.83,0,0,0-1.73-1.4,41.17,41.17,0,0,0-4.84.23,20.94,20.94,0,0,0-9.42,3.65,22.35,22.35,0,0,0-9.67,15.09c-.08.46-.23.65-.73.61-2.9-.22-5.81-.43-8.71-.62-.55,0-.7-.24-.58-.75.32-1.47.59-3,1-4.42A30,30,0,0,1,22.62,32,32.63,32.63,0,0,1,28,25.78,1.86,1.86,0,1,0,25.5,23a35.94,35.94,0,0,0-5.74,6.63,33.92,33.92,0,0,0-4.47,9.27c-.45,1.51-1.34,5.52-1.37,5.73a36.06,36.06,0,0,0,.19,11.59c.44,2.12,1.06,4.2,1.69,6.26a1.77,1.77,0,0,0,2.71.9c.82-.53,1-1.47.54-2.75a32.72,32.72,0,0,1-1.8-10.09c0-.5.14-.66.65-.62,2.92.22,5.85.43,8.77.62.45,0,.58.21.64.65A33.32,33.32,0,0,0,28,55.79a22.37,22.37,0,0,0,7.89,12c.34.27.39.44.16.81-1,1.72-2,3.46-3.08,5.19-.59,1-1.18,2-1.79,3l-.34-.22a36.64,36.64,0,0,1-5.57-5.06,1.85,1.85,0,0,0-2.71-.19,1.74,1.74,0,0,0,0,2.6c1.72,1.7,3.45,3.41,5.3,5a29.51,29.51,0,0,0,8.52,4.89,49.45,49.45,0,0,0,5.71,1.74c1.52.37,3.1.51,4.66.76a1.15,1.15,0,0,1,.23.1c-.23,3.25-.46,6.47-.69,9.69a.84.84,0,0,1-.24,0c-.29,0-.58,0-.87-.07a47.94,47.94,0,0,1-9.67-2.09A46.2,46.2,0,0,1,15.83,81.17c-.26-.28-3.05-3.74-3.32-4.11a44,44,0,0,1-4.42-7.44A41.44,41.44,0,0,1,4.67,59.28a69.34,69.34,0,0,1-.89-7.18,31,31,0,0,1,0-4c0-.27,0-.49,0-.71A45.33,45.33,0,0,1,5.7,36.52,46.56,46.56,0,0,1,24.13,11.66,45.54,45.54,0,0,1,42,4.44a46.64,46.64,0,0,1,9.13-.69A46.71,46.71,0,0,1,71,8.77c.39.2.76.41,1.14.62L69,14.34,83.91,15,77,1.74,74.13,6.26a45.86,45.86,0,0,0-4.21-2.1A50.63,50.63,0,0,0,58.87.84,49.5,49.5,0,0,0,41.66.73,47.91,47.91,0,0,0,29.27,4.52,50.23,50.23,0,0,0,4.64,29,50.35,50.35,0,0,0,.84,41,49.65,49.65,0,0,0,.6,57.73,47.51,47.51,0,0,0,3.34,67.9,50.49,50.49,0,0,0,9.62,79.42c.18.25,1.05,1.39,1.26,1.65s1.45,1.65,1.67,1.86c7.37,8.94,22.94,18.92,43,16.73A49.76,49.76,0,0,0,97.16,66.3C102.5,50.79,100.22,36.06,91.58,22.19Z"/></svg>